# xmcd
#
# Track frame offsets:
#	150
#	10804
#	23009
#	35263
#	45128
#	61181
#	72482
#	88275
#	100527
#	113797
#	130374
#	147787
#	158847
#	177101
#	188282
#	203586
#	214153
#	227809
#
# Disc length: 3216 seconds
#
# Revision: 2
# Processed by: cddbd v1.5.2PL0 Copyright (c) Steve Scherf et al.
# Submitted via: audiograbber 1.83.01
#
DISCID=e10c8e12
DTITLE=Jim Haynes - Words Of Wisdom
DYEAR=2004
DGENRE=Comedy
TTITLE0=Searching For The Outback
TTITLE1=Better Out Than In
TTITLE2=Come Along For The Ride (with Brendon Walmsley)
TTITLE3=Girls Are Attracted To Me
TTITLE4=Smoky On The Radio (with Smoky Dawson)
TTITLE5=Danga Danga Dooley Dang
TTITLE6=I'll Watch Anything
TTITLE7=Half A Dozen Stubbies In The Fridge
TTITLE8=My Grandad (featuring Liam Gibson)
TTITLE9=We're A Long Time Dead
TTITLE10=The Old Holden Waltz
TTITLE11=Wontcha Be My Baby
TTITLE12=Buckalong (with Brendon Walmsley)
TTITLE13=Don't Call Wagga Wagga Wagga
TTITLE14=Where There's A Will
TTITLE15=Lobster And Never Flounder
TTITLE16=Since Cheryl Went Feral
TTITLE17=Rindercella - A Tairyfale
EXTD=YEAR: 2004
EXTT0=
EXTT1=
EXTT2=
EXTT3=
EXTT4=
EXTT5=
EXTT6=
EXTT7=
EXTT8=
EXTT9=
EXTT10=
EXTT11=
EXTT12=
EXTT13=
EXTT14=
EXTT15=
EXTT16=
EXTT17=
PLAYORDER=
